<svg xmlns="http://www.w3.org/2000/svg" viewBox="0 0 900 280" width="900" height="280">
<defs>
  <linearGradient id="sky" x1="0" y1="0" x2="0" y2="1">
    <stop offset="0%"   stop-color="#1a3a6e"/>
    <stop offset="45%"  stop-color="#3a8fd6"/>
    <stop offset="100%" stop-color="#87ceeb"/>
  </linearGradient>
  <filter id="glow">
    <feGaussianBlur in="SourceGraphic" stdDeviation="4" result="b"/>
    <feMerge><feMergeNode in="b"/><feMergeNode in="b"/><feMergeNode in="SourceGraphic"/></feMerge>
  </filter>
  <filter id="sglow">
    <feGaussianBlur in="SourceGraphic" stdDeviation="7" result="b"/>
    <feMerge><feMergeNode in="b"/><feMergeNode in="SourceGraphic"/></feMerge>
  </filter>
  <clipPath id="cc"><rect width="900" height="280"/></clipPath>
  <path id="op" d="M738,118 C738,161 609,196 450,196 C291,196 162,161 162,118 C162,75 291,40 450,40 C609,40 738,75 738,118Z" fill="none"/>
</defs>
<style>
  @keyframes c1{from{transform:translateX(-220px)}to{transform:translateX(1120px)}}
  @keyframes c2{from{transform:translateX(-180px)}to{transform:translateX(1120px)}}
  @keyframes c3{from{transform:translateX(-150px)}to{transform:translateX(1120px)}}
  @keyframes c4{from{transform:translateX(-100px)}to{transform:translateX(1120px)}}
  @keyframes tf{0%,100%{transform:translateY(0)}50%{transform:translateY(-7px)}}
  @keyframes gp{0%,100%{opacity:1}50%{opacity:.8}}
  @keyframes tw1{0%,100%{opacity:.9}50%{opacity:.1}}
  @keyframes tw2{0%,100%{opacity:.2}50%{opacity:1}}
  @keyframes tw3{0%,100%{opacity:.7}50%{opacity:.1}}
  @keyframes sr{from{transform:rotate(0deg)}to{transform:rotate(360deg)}}
  @keyframes sp{0%,100%{transform:scale(1)}50%{transform:scale(1.07)}}
  @keyframes df{0%,49.9%{transform:scaleX(-1)}50%,99.9%{transform:scaleX(1)}100%{transform:scaleX(-1)}}
  @keyframes wf{0%,100%{transform:translateY(0)}50%{transform:translateY(-5px)}}
  @keyframes ff{0%,100%{opacity:1;transform:scaleX(1)}50%{opacity:.7;transform:scaleX(.85)}}
  @keyframes bl{0%,49%{opacity:1}50%,100%{opacity:0}}
  @keyframes bp{0%,100%{opacity:1}50%{opacity:.6}}
</style>

<!-- SKY -->
<rect width="900" height="280" fill="url(#sky)" clip-path="url(#cc)"/>

<!-- STARS -->
<g clip-path="url(#cc)">
  <rect x="45"  y="22"  width="3" height="3" fill="white" style="animation:tw1 2.1s infinite"/>
  <rect x="120" y="15"  width="2" height="2" fill="white" style="animation:tw2 1.8s infinite"/>
  <rect x="205" y="32"  width="3" height="3" fill="white" style="animation:tw3 2.5s infinite"/>
  <rect x="285" y="12"  width="2" height="2" fill="white" style="animation:tw1 1.5s .5s infinite"/>
  <rect x="360" y="26"  width="3" height="3" fill="white" style="animation:tw2 2.3s .3s infinite"/>
  <rect x="438" y="10"  width="2" height="2" fill="white" style="animation:tw3 1.9s .8s infinite"/>
  <rect x="525" y="30"  width="3" height="3" fill="white" style="animation:tw1 2.7s .2s infinite"/>
  <rect x="608" y="18"  width="2" height="2" fill="white" style="animation:tw2 2.0s .6s infinite"/>
  <rect x="688" y="35"  width="3" height="3" fill="white" style="animation:tw3 2.4s 1s infinite"/>
  <rect x="765" y="14"  width="2" height="2" fill="white" style="animation:tw1 1.7s .4s infinite"/>
  <rect x="848" y="28"  width="3" height="3" fill="white" style="animation:tw2 2.1s .7s infinite"/>
  <rect x="88"  y="52"  width="2" height="2" fill="white" style="animation:tw3 2.6s .1s infinite"/>
  <rect x="182" y="60"  width="3" height="3" fill="white" style="animation:tw1 1.9s .9s infinite"/>
  <rect x="325" y="48"  width="2" height="2" fill="white" style="animation:tw2 2.2s .5s infinite"/>
  <rect x="490" y="52"  width="3" height="3" fill="white" style="animation:tw3 2.8s .3s infinite"/>
  <rect x="648" y="46"  width="2" height="2" fill="white" style="animation:tw1 1.6s .7s infinite"/>
  <rect x="158" y="6"   width="2" height="2" fill="white" style="animation:tw2 2.0s 1.1s infinite"/>
  <rect x="405" y="7"   width="3" height="3" fill="white" style="animation:tw3 2.5s .6s infinite"/>
  <rect x="725" y="8"   width="2" height="2" fill="white" style="animation:tw1 1.8s .4s infinite"/>
  <rect x="808" y="55"  width="3" height="3" fill="white" style="animation:tw2 2.3s .2s infinite"/>
</g>

<!-- SUN -->
<g clip-path="url(#cc)">
  <g transform="translate(82,68)" style="animation:sr 9s linear infinite;transform-origin:0 0">
    <rect x="-2" y="-28" width="4" height="10" fill="#ffaa00"/>
    <rect x="16"  y="-22" width="10" height="4" transform="rotate(45)" fill="#ffaa00"/>
    <rect x="24"  y="-2"  width="10" height="4" fill="#ffaa00"/>
    <rect x="16"  y="14"  width="4" height="10" transform="rotate(45)" fill="#ffaa00"/>
    <rect x="-2"  y="20"  width="4" height="10" fill="#ffaa00"/>
    <rect x="-30" y="14"  width="10" height="4" transform="rotate(45)" fill="#ffaa00"/>
    <rect x="-36" y="-2"  width="10" height="4" fill="#ffaa00"/>
    <rect x="-30" y="-24" width="4" height="10" transform="rotate(45)" fill="#ffaa00"/>
  </g>
  <g transform="translate(82,68)" style="animation:sp 3s ease-in-out infinite;transform-origin:0 0" filter="url(#sglow)">
    <rect x="-16" y="-12" width="32" height="24" fill="#ffe94d" rx="2"/>
    <rect x="-12" y="-16" width="24" height="32" fill="#ffe94d" rx="2"/>
    <rect x="-9"  y="-9"  width="18" height="18" fill="#fff8a0"/>
    <rect x="-7"  y="-4"  width="5"  height="5"  fill="#cc7700"/>
    <rect x="3"   y="-4"  width="5"  height="5"  fill="#cc7700"/>
    <rect x="-5"  y="5"   width="4"  height="3"  fill="#cc7700"/>
    <rect x="-1"  y="7"   width="4"  height="3"  fill="#cc7700"/>
    <rect x="3"   y="5"   width="4"  height="3"  fill="#cc7700"/>
  </g>
</g>

<!-- CLOUDS -->
<g clip-path="url(#cc)">
  <g style="animation:c1 20s linear infinite">
    <rect x="140" y="44"  width="16" height="10" fill="white"/>
    <rect x="128" y="50"  width="40" height="14" fill="white"/>
    <rect x="122" y="56"  width="52" height="14" fill="white"/>
    <rect x="130" y="66"  width="38" height="8"  fill="#d0e8ff"/>
  </g>
  <g style="animation:c2 28s 6s linear infinite">
    <rect x="370" y="28"  width="14" height="8"  fill="white"/>
    <rect x="360" y="35"  width="34" height="12" fill="white"/>
    <rect x="354" y="42"  width="46" height="13" fill="white"/>
    <rect x="362" y="52"  width="32" height="8"  fill="#d0e8ff"/>
  </g>
  <g style="animation:c3 24s 11s linear infinite">
    <rect x="618" y="50"  width="12" height="8"  fill="white"/>
    <rect x="607" y="56"  width="34" height="12" fill="white"/>
    <rect x="601" y="63"  width="46" height="13" fill="white"/>
    <rect x="609" y="73"  width="34" height="7"  fill="#d0e8ff"/>
  </g>
  <g style="animation:c4 17s 3s linear infinite">
    <rect x="795" y="36"  width="10" height="6"  fill="white"/>
    <rect x="787" y="42"  width="26" height="10" fill="white"/>
    <rect x="781" y="49"  width="38" height="12" fill="white"/>
    <rect x="789" y="59"  width="26" height="7"  fill="#d0e8ff"/>
  </g>
</g>

<!-- GROUND -->
<g clip-path="url(#cc)">
  <rect x="0" y="252" width="900" height="10" fill="#4caf50"/>
  <rect x="0" y="262" width="900" height="6"  fill="#388e3c"/>
  <rect x="0" y="268" width="900" height="12" fill="#6d4c41"/>
  <rect x="0"   y="249" width="5" height="6" fill="#81c784"/>
  <rect x="30"  y="250" width="4" height="5" fill="#66bb6a"/>
  <rect x="70"  y="249" width="5" height="7" fill="#81c784"/>
  <rect x="110" y="250" width="4" height="5" fill="#66bb6a"/>
  <rect x="150" y="249" width="5" height="6" fill="#81c784"/>
  <rect x="195" y="250" width="4" height="5" fill="#66bb6a"/>
  <rect x="240" y="249" width="5" height="7" fill="#81c784"/>
  <rect x="290" y="250" width="4" height="5" fill="#66bb6a"/>
  <rect x="340" y="249" width="5" height="6" fill="#81c784"/>
  <rect x="390" y="250" width="4" height="5" fill="#66bb6a"/>
  <rect x="440" y="249" width="5" height="7" fill="#81c784"/>
  <rect x="490" y="250" width="4" height="5" fill="#66bb6a"/>
  <rect x="545" y="249" width="5" height="6" fill="#81c784"/>
  <rect x="600" y="250" width="4" height="5" fill="#66bb6a"/>
  <rect x="650" y="249" width="5" height="7" fill="#81c784"/>
  <rect x="700" y="250" width="4" height="5" fill="#66bb6a"/>
  <rect x="750" y="249" width="5" height="6" fill="#81c784"/>
  <rect x="800" y="250" width="4" height="5" fill="#66bb6a"/>
  <rect x="850" y="249" width="5" height="7" fill="#81c784"/>
</g>

<!-- DRAGON (orbiting) -->
<g clip-path="url(#cc)">
  <g>
    <animateMotion dur="10s" repeatCount="indefinite" calcMode="linear">
      <mpath href="#op"/>
    </animateMotion>
    <g style="animation:df 10s steps(1,end) infinite;transform-origin:0 0" filter="url(#glow)">
      <!-- UPPER WING -->
      <g style="animation:wf .55s ease-in-out infinite;transform-origin:0 -8px">
        <rect x="-4"  y="-35" width="20" height="5" fill="#2acc66"/>
        <rect x="-2"  y="-30" width="26" height="5" fill="#2acc66"/>
        <rect x="0"   y="-25" width="22" height="5" fill="#2acc66"/>
        <rect x="2"   y="-21" width="16" height="5" fill="#1a9944"/>
      </g>
      <!-- HORN -->
      <rect x="-28" y="-30" width="5" height="5"  fill="#1e7a4b"/>
      <rect x="-28" y="-25" width="5" height="5"  fill="#1e7a4b"/>
      <!-- HEAD -->
      <rect x="-35" y="-20" width="30" height="5"  fill="#3ddc84"/>
      <rect x="-38" y="-15" width="33" height="5"  fill="#3ddc84"/>
      <rect x="-35" y="-10" width="30" height="5"  fill="#3ddc84"/>
      <!-- EYE -->
      <rect x="-32" y="-20" width="5"  height="5"  fill="#ff4444"/>
      <rect x="-30" y="-20" width="3"  height="3"  fill="#ff8888"/>
      <!-- SNOUT -->
      <rect x="-45" y="-15" width="10" height="10" fill="#3ddc84"/>
      <rect x="-45" y="-15" width="5"  height="5"  fill="#1e7a4b"/>
      <!-- BODY -->
      <rect x="-5"  y="-15" width="45" height="30" fill="#3ddc84"/>
      <!-- BELLY -->
      <rect x="0"   y="-10" width="30" height="20" fill="#a8ffcc"/>
      <!-- LOWER WING -->
      <g style="animation:wf .55s ease-in-out infinite reverse;transform-origin:0 20px">
        <rect x="2"   y="16"  width="22" height="5" fill="#1a9944"/>
        <rect x="0"   y="21"  width="26" height="5" fill="#1a9944"/>
        <rect x="-2"  y="26"  width="20" height="5" fill="#1a9944"/>
      </g>
      <!-- LEGS -->
      <rect x="2"   y="15"  width="6"  height="18" fill="#1e7a4b"/>
      <rect x="22"  y="15"  width="6"  height="18" fill="#1e7a4b"/>
      <!-- FEET -->
      <rect x="-3"  y="30"  width="16" height="5"  fill="#1e7a4b"/>
      <rect x="17"  y="30"  width="16" height="5"  fill="#1e7a4b"/>
      <!-- TAIL -->
      <rect x="40"  y="-5"  width="12" height="5"  fill="#3ddc84"/>
      <rect x="50"  y="-10" width="12" height="5"  fill="#3ddc84"/>
      <rect x="58"  y="-16" width="8"  height="5"  fill="#1e7a4b"/>
      <rect x="64"  y="-22" width="6"  height="5"  fill="#1e7a4b"/>
      <rect x="52"  y="-16" width="5"  height="5"  fill="#1e7a4b"/>
      <rect x="60"  y="-22" width="5"  height="5"  fill="#1e7a4b"/>
      <!-- FIRE -->
      <g style="animation:ff .35s ease-in-out infinite;transform-origin:-45px -10px">
        <rect x="-56" y="-12" width="12" height="8"  fill="#ff6600"/>
        <rect x="-64" y="-14" width="10" height="6"  fill="#ff4400"/>
        <rect x="-72" y="-12" width="10" height="8"  fill="#ffaa00"/>
        <rect x="-80" y="-13" width="10" height="6"  fill="#ffdd00"/>
        <rect x="-84" y="-12" width="6"  height="4"  fill="#ffffff88"/>
      </g>
    </g>
  </g>
</g>

<!-- TITLE -->
<g clip-path="url(#cc)" style="animation:tf 3.2s ease-in-out infinite">
  <text x="453" y="133" text-anchor="middle"
        font-family="'Courier New',Courier,monospace"
        font-size="30" font-weight="bold" letter-spacing="2"
        fill="#996600" opacity=".7">NGUYEN THANH KHANG</text>
  <text x="450" y="130" text-anchor="middle"
        font-family="'Courier New',Courier,monospace"
        font-size="30" font-weight="bold" letter-spacing="2"
        fill="#ffe94d" filter="url(#glow)"
        style="animation:gp 2.5s ease-in-out infinite">NGUYEN THANH KHANG</text>
</g>

<!-- SUBTITLE -->
<g clip-path="url(#cc)" style="animation:tf 3.2s ease-in-out infinite">
  <text x="450" y="165" text-anchor="middle"
        font-family="'Courier New',Courier,monospace"
        font-size="14" letter-spacing="1"
        fill="#a0d8ff" filter="url(#glow)">&lt; Software Engineer /&gt;</text>
  <text x="635" y="165"
        font-family="'Courier New',Courier,monospace"
        font-size="14" fill="#4a9eff"
        style="animation:bl 1s step-end infinite">_</text>
</g>

<!-- PIXEL BORDER TOP -->
<g clip-path="url(#cc)" style="animation:bp 2s ease-in-out infinite">
  <rect x="0"   y="0" width="9" height="8" fill="#ffe94d"/>
  <rect x="18"  y="0" width="9" height="8" fill="#ff8c00"/>
  <rect x="36"  y="0" width="9" height="8" fill="#ffe94d"/>
  <rect x="54"  y="0" width="9" height="8" fill="#ff8c00"/>
  <rect x="72"  y="0" width="9" height="8" fill="#ffe94d"/>
  <rect x="90"  y="0" width="9" height="8" fill="#ff8c00"/>
  <rect x="108" y="0" width="9" height="8" fill="#ffe94d"/>
  <rect x="126" y="0" width="9" height="8" fill="#ff8c00"/>
  <rect x="144" y="0" width="9" height="8" fill="#ffe94d"/>
  <rect x="162" y="0" width="9" height="8" fill="#ff8c00"/>
  <rect x="180" y="0" width="9" height="8" fill="#ffe94d"/>
  <rect x="198" y="0" width="9" height="8" fill="#ff8c00"/>
  <rect x="216" y="0" width="9" height="8" fill="#ffe94d"/>
  <rect x="234" y="0" width="9" height="8" fill="#ff8c00"/>
  <rect x="252" y="0" width="9" height="8" fill="#ffe94d"/>
  <rect x="270" y="0" width="9" height="8" fill="#ff8c00"/>
  <rect x="288" y="0" width="9" height="8" fill="#ffe94d"/>
  <rect x="306" y="0" width="9" height="8" fill="#ff8c00"/>
  <rect x="324" y="0" width="9" height="8" fill="#ffe94d"/>
  <rect x="342" y="0" width="9" height="8" fill="#ff8c00"/>
  <rect x="360" y="0" width="9" height="8" fill="#ffe94d"/>
  <rect x="378" y="0" width="9" height="8" fill="#ff8c00"/>
  <rect x="396" y="0" width="9" height="8" fill="#ffe94d"/>
  <rect x="414" y="0" width="9" height="8" fill="#ff8c00"/>
  <rect x="432" y="0" width="9" height="8" fill="#ffe94d"/>
  <rect x="450" y="0" width="9" height="8" fill="#ff8c00"/>
  <rect x="468" y="0" width="9" height="8" fill="#ffe94d"/>
  <rect x="486" y="0" width="9" height="8" fill="#ff8c00"/>
  <rect x="504" y="0" width="9" height="8" fill="#ffe94d"/>
  <rect x="522" y="0" width="9" height="8" fill="#ff8c00"/>
  <rect x="540" y="0" width="9" height="8" fill="#ffe94d"/>
  <rect x="558" y="0" width="9" height="8" fill="#ff8c00"/>
  <rect x="576" y="0" width="9" height="8" fill="#ffe94d"/>
  <rect x="594" y="0" width="9" height="8" fill="#ff8c00"/>
  <rect x="612" y="0" width="9" height="8" fill="#ffe94d"/>
  <rect x="630" y="0" width="9" height="8" fill="#ff8c00"/>
  <rect x="648" y="0" width="9" height="8" fill="#ffe94d"/>
  <rect x="666" y="0" width="9" height="8" fill="#ff8c00"/>
  <rect x="684" y="0" width="9" height="8" fill="#ffe94d"/>
  <rect x="702" y="0" width="9" height="8" fill="#ff8c00"/>
  <rect x="720" y="0" width="9" height="8" fill="#ffe94d"/>
  <rect x="738" y="0" width="9" height="8" fill="#ff8c00"/>
  <rect x="756" y="0" width="9" height="8" fill="#ffe94d"/>
  <rect x="774" y="0" width="9" height="8" fill="#ff8c00"/>
  <rect x="792" y="0" width="9" height="8" fill="#ffe94d"/>
  <rect x="810" y="0" width="9" height="8" fill="#ff8c00"/>
  <rect x="828" y="0" width="9" height="8" fill="#ffe94d"/>
  <rect x="846" y="0" width="9" height="8" fill="#ff8c00"/>
  <rect x="864" y="0" width="9" height="8" fill="#ffe94d"/>
  <rect x="882" y="0" width="9" height="8" fill="#ff8c00"/>
  <!-- BOTTOM -->
  <rect x="9"   y="272" width="9" height="8" fill="#ffe94d"/>
  <rect x="27"  y="272" width="9" height="8" fill="#ff8c00"/>
  <rect x="45"  y="272" width="9" height="8" fill="#ffe94d"/>
  <rect x="63"  y="272" width="9" height="8" fill="#ff8c00"/>
  <rect x="81"  y="272" width="9" height="8" fill="#ffe94d"/>
  <rect x="99"  y="272" width="9" height="8" fill="#ff8c00"/>
  <rect x="117" y="272" width="9" height="8" fill="#ffe94d"/>
  <rect x="135" y="272" width="9" height="8" fill="#ff8c00"/>
  <rect x="153" y="272" width="9" height="8" fill="#ffe94d"/>
  <rect x="171" y="272" width="9" height="8" fill="#ff8c00"/>
  <rect x="189" y="272" width="9" height="8" fill="#ffe94d"/>
  <rect x="207" y="272" width="9" height="8" fill="#ff8c00"/>
  <rect x="225" y="272" width="9" height="8" fill="#ffe94d"/>
  <rect x="243" y="272" width="9" height="8" fill="#ff8c00"/>
  <rect x="261" y="272" width="9" height="8" fill="#ffe94d"/>
  <rect x="279" y="272" width="9" height="8" fill="#ff8c00"/>
  <rect x="297" y="272" width="9" height="8" fill="#ffe94d"/>
  <rect x="315" y="272" width="9" height="8" fill="#ff8c00"/>
  <rect x="333" y="272" width="9" height="8" fill="#ffe94d"/>
  <rect x="351" y="272" width="9" height="8" fill="#ff8c00"/>
  <rect x="369" y="272" width="9" height="8" fill="#ffe94d"/>
  <rect x="387" y="272" width="9" height="8" fill="#ff8c00"/>
  <rect x="405" y="272" width="9" height="8" fill="#ffe94d"/>
  <rect x="423" y="272" width="9" height="8" fill="#ff8c00"/>
  <rect x="441" y="272" width="9" height="8" fill="#ffe94d"/>
  <rect x="459" y="272" width="9" height="8" fill="#ff8c00"/>
  <rect x="477" y="272" width="9" height="8" fill="#ffe94d"/>
  <rect x="495" y="272" width="9" height="8" fill="#ff8c00"/>
  <rect x="513" y="272" width="9" height="8" fill="#ffe94d"/>
  <rect x="531" y="272" width="9" height="8" fill="#ff8c00"/>
  <rect x="549" y="272" width="9" height="8" fill="#ffe94d"/>
  <rect x="567" y="272" width="9" height="8" fill="#ff8c00"/>
  <rect x="585" y="272" width="9" height="8" fill="#ffe94d"/>
  <rect x="603" y="272" width="9" height="8" fill="#ff8c00"/>
  <rect x="621" y="272" width="9" height="8" fill="#ffe94d"/>
  <rect x="639" y="272" width="9" height="8" fill="#ff8c00"/>
  <rect x="657" y="272" width="9" height="8" fill="#ffe94d"/>
  <rect x="675" y="272" width="9" height="8" fill="#ff8c00"/>
  <rect x="693" y="272" width="9" height="8" fill="#ffe94d"/>
  <rect x="711" y="272" width="9" height="8" fill="#ff8c00"/>
  <rect x="729" y="272" width="9" height="8" fill="#ffe94d"/>
  <rect x="747" y="272" width="9" height="8" fill="#ff8c00"/>
  <rect x="765" y="272" width="9" height="8" fill="#ffe94d"/>
  <rect x="783" y="272" width="9" height="8" fill="#ff8c00"/>
  <rect x="801" y="272" width="9" height="8" fill="#ffe94d"/>
  <rect x="819" y="272" width="9" height="8" fill="#ff8c00"/>
  <rect x="837" y="272" width="9" height="8" fill="#ffe94d"/>
  <rect x="855" y="272" width="9" height="8" fill="#ff8c00"/>
  <rect x="873" y="272" width="9" height="8" fill="#ffe94d"/>
  <rect x="891" y="272" width="9" height="8" fill="#ff8c00"/>
  <!-- LEFT -->
  <rect x="0" y="0"   width="8" height="9"  fill="#ffe94d"/>
  <rect x="0" y="18"  width="8" height="9"  fill="#ff8c00"/>
  <rect x="0" y="36"  width="8" height="9"  fill="#ffe94d"/>
  <rect x="0" y="54"  width="8" height="9"  fill="#ff8c00"/>
  <rect x="0" y="72"  width="8" height="9"  fill="#ffe94d"/>
  <rect x="0" y="90"  width="8" height="9"  fill="#ff8c00"/>
  <rect x="0" y="108" width="8" height="9"  fill="#ffe94d"/>
  <rect x="0" y="126" width="8" height="9"  fill="#ff8c00"/>
  <rect x="0" y="144" width="8" height="9"  fill="#ffe94d"/>
  <rect x="0" y="162" width="8" height="9"  fill="#ff8c00"/>
  <rect x="0" y="180" width="8" height="9"  fill="#ffe94d"/>
  <rect x="0" y="198" width="8" height="9"  fill="#ff8c00"/>
  <rect x="0" y="216" width="8" height="9"  fill="#ffe94d"/>
  <rect x="0" y="234" width="8" height="9"  fill="#ff8c00"/>
  <rect x="0" y="252" width="8" height="9"  fill="#ffe94d"/>
  <rect x="0" y="270" width="8" height="9"  fill="#ff8c00"/>
  <!-- RIGHT -->
  <rect x="892" y="9"   width="8" height="9"  fill="#ffe94d"/>
  <rect x="892" y="27"  width="8" height="9"  fill="#ff8c00"/>
  <rect x="892" y="45"  width="8" height="9"  fill="#ffe94d"/>
  <rect x="892" y="63"  width="8" height="9"  fill="#ff8c00"/>
  <rect x="892" y="81"  width="8" height="9"  fill="#ffe94d"/>
  <rect x="892" y="99"  width="8" height="9"  fill="#ff8c00"/>
  <rect x="892" y="117" width="8" height="9"  fill="#ffe94d"/>
  <rect x="892" y="135" width="8" height="9"  fill="#ff8c00"/>
  <rect x="892" y="153" width="8" height="9"  fill="#ffe94d"/>
  <rect x="892" y="171" width="8" height="9"  fill="#ff8c00"/>
  <rect x="892" y="189" width="8" height="9"  fill="#ffe94d"/>
  <rect x="892" y="207" width="8" height="9"  fill="#ff8c00"/>
  <rect x="892" y="225" width="8" height="9"  fill="#ffe94d"/>
  <rect x="892" y="243" width="8" height="9"  fill="#ff8c00"/>
  <rect x="892" y="261" width="8" height="9"  fill="#ffe94d"/>
</g>
</svg>
